<svg xmlns="http://www.w3.org/2000/svg" width="120" height="120" fill="none">
  <rect width="120" height="120" fill="url(#a)" rx="24" />
  <g fill="#F6F6FE" filter="url(#b)">
    <path
      d="M34 30c0-1.105.904-2 2.02-2h16.162a2.01 2.01 0 0 1 2.02 2v26c0 2.21 1.81 4 4.04 4v8c-2.23 0-4.04 1.79-4.04 4v18c0 1.105-.904 2-2.02 2H37.03C35.357 92 34 90.657 34 89V30ZM84.78 69.09C83.433 63.748 78.584 60 73.022 60H58.243v8c2.413 0 4.555 1.529 5.318 3.795l4.04 12c1.65 4.9 6.282 8.205 11.5 8.205h8.878c1.314 0 2.278-1.223 1.96-2.485L84.78 69.09ZM80.465 44c0 5.523-4.522 10-10.101 10-5.579 0-10.101-4.477-10.101-10s4.522-10 10.101-10c5.579 0 10.101 4.477 10.101 10Z"
    />
  </g>
  <defs>
    <linearGradient
      id="a"
      x1="0"
      x2="114"
      y1="0"
      y2="120"
      gradientUnits="userSpaceOnUse"
    >
      <stop stop-color="#6362F8" />
      <stop offset="1" stop-color="#3635FD" />
    </linearGradient>
    <filter
      id="b"
      width="92"
      height="96"
      x="14"
      y="16"
      color-interpolation-filters="sRGB"
      filterUnits="userSpaceOnUse"
    >
      <feFlood flood-opacity="0" result="BackgroundImageFix" />
      <feColorMatrix
        in="SourceAlpha"
        result="hardAlpha"
        values="0 0 0 0 0 0 0 0 0 0 0 0 0 0 0 0 0 0 127 0"
      />
      <feOffset dy="2" />
      <feGaussianBlur stdDeviation="2" />
      <feComposite in2="hardAlpha" operator="out" />
      <feColorMatrix values="0 0 0 0 0 0 0 0 0 0 0 0 0 0 0 0 0 0 0.2 0" />
      <feBlend in2="BackgroundImageFix" result="effect1_dropShadow_90_16" />
      <feColorMatrix
        in="SourceAlpha"
        result="hardAlpha"
        values="0 0 0 0 0 0 0 0 0 0 0 0 0 0 0 0 0 0 127 0"
      />
      <feOffset dy="4" />
      <feGaussianBlur stdDeviation="8" />
      <feComposite in2="hardAlpha" operator="out" />
      <feColorMatrix values="0 0 0 0 0 0 0 0 0 0 0 0 0 0 0 0 0 0 0.1 0" />
      <feBlend
        in2="effect1_dropShadow_90_16"
        result="effect2_dropShadow_90_16"
      />
      <feBlend
        in="SourceGraphic"
        in2="effect2_dropShadow_90_16"
        result="shape"
      />
    </filter>
  </defs>
</svg>
